<svg xmlns="http://www.w3.org/2000/svg" viewBox="0 0 64 64" role="img" aria-label="GHS05 — Corrosive">
  <title>GHS05 — Corrosive</title>
  <path d="M32 3 L61 32 L32 61 L3 32 Z" fill="#fff" stroke="#e30613" stroke-width="3" stroke-linejoin="miter"/>
  <!-- left test tube tipped, pouring on a flat bar -->
  <path d="M12 16 L22 16 L20 28 L14 28 Z" fill="#000"/>
  <line x1="17" y1="28" x2="20" y2="38" stroke="#000" stroke-width="2.5" stroke-linecap="round"/>
  <rect x="6" y="40" width="22" height="3" fill="#000"/>
  <!-- bar etching -->
  <path d="M9 43 L11 47 M14 43 L16 47 M19 43 L21 47 M24 43 L26 47" stroke="#000" stroke-width="1.5"/>
  <!-- right test tube tipped, pouring on a hand -->
  <path d="M52 16 L42 16 L44 28 L50 28 Z" fill="#000"/>
  <line x1="47" y1="28" x2="44" y2="38" stroke="#000" stroke-width="2.5" stroke-linecap="round"/>
  <!-- stylized hand -->
  <path d="M36 50 L36 42 L38 40 L40 42 L40 38 L42 36 L44 38 L44 42 L48 44 L52 50 L52 54 L36 54 Z" fill="#000"/>
  <path d="M40 46 L42 50 M44 46 L46 50" stroke="#fff" stroke-width="1"/>
</svg>
