<svg xmlns="http://www.w3.org/2000/svg" viewBox="0 0 64 64" role="img" aria-label="GHS01 — Explosive">
  <title>GHS01 — Explosive</title>
  <path d="M32 3 L61 32 L32 61 L3 32 Z" fill="#fff" stroke="#e30613" stroke-width="3" stroke-linejoin="miter"/>
  <g fill="#000">
    <circle cx="32" cy="34" r="6"/>
    <path d="M32 14 L34 22 L32 28 L30 22 Z"/>
    <path d="M32 54 L34 46 L32 40 L30 46 Z"/>
    <path d="M14 32 L22 34 L28 32 L22 30 Z"/>
    <path d="M50 32 L42 34 L36 32 L42 30 Z"/>
    <path d="M19 19 L26 24 L29 27 L24 26 Z"/>
    <path d="M45 45 L38 40 L35 37 L40 38 Z"/>
    <path d="M19 45 L24 38 L27 35 L26 40 Z"/>
    <path d="M45 19 L40 26 L37 29 L38 24 Z"/>
  </g>
</svg>
